<svg width="1003" height="1003" viewBox="0 0 1003 1003" fill="none" xmlns="http://www.w3.org/2000/svg">
<circle cx="501.5" cy="501.5" r="491.5" stroke="black" stroke-width="20"/>
<circle cx="501.5" cy="414.5" r="155.5" fill="black" stroke="black" stroke-width="20"/>
<path d="M790.48 886.457C782.521 891.681 772.242 898.427 758.387 912.886C695.747 935.298 673.897 947.657 660.57 955.196C656.357 957.579 652.995 959.48 649.466 961.065C642.398 964.239 633.423 966.841 611.667 970.489C590.086 974.108 556.728 978.639 501.364 985.932C476.663 983.369 456.552 981.711 439.532 980.309C432.947 979.766 426.824 979.261 421.078 978.757C400.149 976.921 384.199 975.09 368.193 971.493C336.405 964.35 303.528 950.061 231.769 913.22C214.401 897.275 208.482 891.158 201.224 883.657C197.136 879.433 192.624 874.769 185.402 867.664C185.906 866.081 186.41 864.502 186.912 862.925C210.065 790.261 231.185 723.978 273.227 674.642C316.541 623.813 383.145 590 501.501 590C604.187 590 668.675 623.548 713.687 674.758C758.426 725.658 784.66 794.766 808.635 869.363C806.399 873.01 804.303 875.578 802.235 877.632C799.483 880.365 796.493 882.49 792.362 885.22C791.75 885.625 791.123 886.036 790.48 886.457Z" fill="black" stroke="black" stroke-width="20"/>
</svg>
